<?xml version="1.0" encoding="utf-8"?>
<!-- Generator: Adobe Illustrator 28.3.0, SVG Export Plug-In . SVG Version: 6.00 Build 0)  -->
<svg version="1.1" id="svg1" xmlns:svg="http://www.w3.org/2000/svg"
	 xmlns="http://www.w3.org/2000/svg" xmlns:xlink="http://www.w3.org/1999/xlink" x="0px" y="0px" viewBox="0 0 969.3 359.7"
	 style="enable-background:new 0 0 969.3 359.7;" xml:space="preserve">
<style type="text/css">
	.st0{fill:#16232B;stroke:#000000;stroke-width:0.75;stroke-miterlimit:10;}
	.st1{font-family:'Arial-BoldMT';}
	.st2{font-size:36.4283px;}
	.st3{fill:#FF5B04;stroke:#000000;stroke-width:0.75;stroke-miterlimit:10;}
	.st4{fill:#075056;stroke:#000000;stroke-width:0.75;stroke-miterlimit:10;}
</style>
<g id="g1" transform="translate(223.64936,-370.2004)">
	<g id="g15" transform="matrix(2.3855057,0,0,2.3855057,-454.13116,-683.06164)">
		<path id="path14" class="st0" d="M404.1,462.9c-1.3,2.3-2.8,4.6-4.3,7.1c-1.4,2.5-2.8,4.8-4,7.1c-1.4,2.4-2.8,4.8-4,7.2
			c-1.2,2.4-2.6,4.8-4,7.2l-5.6,10.3c-1.7,3.3-3.7,6.8-5.9,10.6c-2.1,3.7-4,7-5.7,10L337.5,463H311c3,5.2,5.9,10.5,8.8,15.7
			c2.9,5.2,5.8,10.4,8.8,15.6c2.1,3.5,4.1,7,6,10.6c2.1,3.6,4.1,7.1,6.2,10.6l29.6,52.6l45.3-82.7H466c2.6,0,4.8,0.9,6.6,2.8
			c2,1.9,2.9,4.2,2.9,7.1v5.9c0,2.7-1,5-2.9,7.1c-1.9,2.1-4.1,3.1-6.6,3.1h-52.3V570h22.2v-36.6h13.9l22.7,36.6h26.2l-23.1-37.8
			c3.4-1.2,6.5-2.9,9.3-5.1c2.8-2.2,5.1-4.6,7.1-7.4s3.4-5.7,4.5-8.8c1.1-3.2,1.7-6.4,1.7-9.7v-5.9c0-4.5-0.9-8.7-2.6-12.6
			c-1.6-3.9-3.9-7.3-6.8-10.2c-2.9-3-6.3-5.3-10.2-6.9c-3.9-1.7-8.1-2.6-12.5-2.6h-41c-0.8-0.1-1.6-0.1-2.4-0.1L404.1,462.9z"/>
		<path id="path15" class="st0" d="M279.5,463v107h22.7V463H279.5z"/>
		<text transform="matrix(0.4192 0 0 0.4192 489.119 466.9294)" class="st0 st1 st2">©</text>
	</g>
	<g id="g23" transform="translate(0,-928)">
		<path id="path20" class="st0" d="M-218.1,1518.4c-2.9,0.4-5.2,2.6-5.5,5.3v0.9v53.9v6.3c1,26.9,15.9,51.4,39.2,64.8
			c7.4,4,15.4,6.8,23.7,8.3h29.8h56h1.2c6-0.8,8.2-6.6,8.9-9.1l0.1-0.7l4.9-63.9l1.6-21.1c-0.3-1,1-3.8,1.9-5.8
			c6.3,0.2,12.5,1.6,18.3,4.1c7.7,3.3,24.5,16.8,28,37.5c0.2,1.9,0.4,3.9,0.4,5.8v0c1.3,14,1.8,27.5,2.8,41.6
			c0,6.3,4.2,11.4,9.5,11.5h0.1h28.9h29.3h26.4h0.2c3.4-0.1,6.2-2.9,6.2-6.3c0-1.9-0.9-3.6-2.3-4.8l-0.4-0.3l-86.4-78.3l-15.6-14.1
			l-2.2-2l-15.5-14l-2-1.8c-3.9-3.2-8.6-5.2-13.5-6l-4.9-0.3l-6.6-0.5l-12.2-0.8l-22-1.5l-10.6-0.7l-92.6-6.3l-21.8-1.5
			L-218.1,1518.4z"/>
		<path id="path4" class="st3" d="M-144.7,1298.2c-37.5,0.6-69.3,27.7-75.8,64.6c-0.3,1.6-0.5,3.3-0.6,4.9v5.4v11.7v115.3v0.3
			c0.1,3.2,2.7,5.8,5.9,5.8l3.5-1.1l92.8-29.4l17.1-5.4l42-13.3l8.3-2.6c6.7-3.1,9.7-9.5,13.7-15.3l17.9-26.2l5.5-8.1l3.7-5.5
			l63.6-93.3l2-2.9c0.1-0.3,0.1-0.6,0.1-0.9c0-1-0.5-2-1.2-2.8c-0.6-0.6-1.4-1.1-2.3-1.3h-2.2h-76.9h-7.6h-31.6h-76.7L-144.7,1298.2
			z"/>
		<path id="path5" class="st4" d="M69.2,1298.2c-2.4,0.9-4.5,2.6-5.9,4.8l-1.4,6.6l-25.5,115.2l-4.9,22.2l-5,22.6l-1.7,7.6
			c-0.6,4-0.5,8.2,0.2,12.3l9.2,18.7l1.7,3.5l12.2,24.8c19.6,35.5,33.4,74.5,53.7,109.5c1.2,1.1,2.7,1.8,4.4,1.8
			c1-0.2,2-0.6,2.8-1.2c0.7-0.6,1.4-1.2,2.1-1.8c16.9-14.6,26.8-35.7,27.2-58v-2.4v-219.2c-4.1-31.4-26.6-57.3-57.2-65.5
			C77.1,1298.9,73.1,1298.4,69.2,1298.2L69.2,1298.2z"/>
	</g>
</g>
</svg>
