<?xml version="1.0" encoding="utf-8"?>
<!-- Generator: Adobe Illustrator 28.3.0, SVG Export Plug-In . SVG Version: 6.00 Build 0)  -->
<svg version="1.1" id="svg1" xmlns:svg="http://www.w3.org/2000/svg"
	 xmlns="http://www.w3.org/2000/svg" xmlns:xlink="http://www.w3.org/1999/xlink" x="0px" y="0px" viewBox="0 0 969.3 359.7"
	 style="enable-background:new 0 0 969.3 359.7;" xml:space="preserve">
<style type="text/css">
	.st0{fill:#16232B;}
	.st1{fill:#FFFFFF;}
	.st2{fill:#16232B;stroke:#FFFFFF;stroke-width:8;stroke-linejoin:round;stroke-miterlimit:10;}
	.st3{font-family:'Arial-BoldMT';}
	.st4{font-size:36.4283px;}
	.st5{fill:#FF5B04;}
	.st6{fill:#075056;}
</style>
<g id="g1" transform="translate(223.64936,-370.2004)">
	<g id="g15" transform="matrix(2.3855057,0,0,2.3855057,-454.13116,-683.06164)">
		<g id="path14">
			<path class="st0" d="M404.1,462.9c-1.3,2.3-2.8,4.6-4.3,7.1c-1.4,2.5-2.8,4.8-4,7.1c-1.4,2.4-2.8,4.8-4,7.2
				c-1.2,2.4-2.6,4.8-4,7.2l-5.6,10.3c-1.7,3.3-3.7,6.8-5.9,10.6c-2.1,3.7-4,7-5.7,10L337.5,463H311c3,5.2,5.9,10.5,8.8,15.7
				c2.9,5.2,5.8,10.4,8.8,15.6c2.1,3.5,4.1,7,6,10.6c2.1,3.6,4.1,7.1,6.2,10.6l29.6,52.6l45.3-82.7H466c2.6,0,4.8,0.9,6.6,2.8
				c2,1.9,2.9,4.2,2.9,7.1v5.9c0,2.7-1,5-2.9,7.1c-1.9,2.1-4.1,3.1-6.6,3.1h-52.3V570h22.2v-36.6h13.9l22.7,36.6h26.2l-23.1-37.8
				c3.4-1.2,6.5-2.9,9.3-5.1c2.8-2.2,5.1-4.6,7.1-7.4s3.4-5.7,4.5-8.8c1.1-3.2,1.7-6.4,1.7-9.7v-5.9c0-4.5-0.9-8.7-2.6-12.6
				c-1.6-3.9-3.9-7.3-6.8-10.2c-2.9-3-6.3-5.3-10.2-6.9c-3.9-1.7-8.1-2.6-12.5-2.6h-41c-0.8-0.1-1.6-0.1-2.4-0.1L404.1,462.9z"/>
			<path class="st1" d="M404.2,463c-8.7,14.7-16.3,30-24.4,45c-2.7,5-5.5,10-8.3,15c-0.3,0.7-1.4,0.7-1.7,0
				c-8.4-14.8-25.2-44.5-33.5-59.4c0,0,1.2,0.7,1.2,0.7s-26.5,0.1-26.5,0.1s1.3-2.2,1.3-2.2c7,12.4,19.1,34,26,46
				c9.2,16.1,24,43.1,33,59.4c0,0-1.7,0-1.7,0l11.5-20.6c10.9-19.4,23.5-42.3,34.2-61.9c0.1-0.2,0.3-0.3,0.5-0.3l17.4,0
				c5.7,0,20.5-0.1,26.1-0.1c0,0,4.3,0,4.3,0c1.3,0,3.2-0.1,4.5,0.2c4.6,0.9,8.3,5.3,8.4,10c0,1.5,0,2.9,0,4.4
				c0,1.5,0.1,3.1-0.3,4.5c-1.2,4.5-5.4,8.6-10.2,8.5c-11,0.1-40.8,0.3-52.2,0.4c0,0,1.3-1.3,1.3-1.3l0.1,29.3
				c0,0,0.1,29.3,0.1,29.3s-1.6-1.6-1.6-1.6s22.2-0.1,22.2-0.1s-1.6,1.6-1.6,1.6l-0.1-36.6c0-1,0.8-1.8,1.8-1.8c0,0,13.9,0,13.9,0
				c0.6,0,1.2,0.3,1.5,0.8c0,0,22.7,36.6,22.7,36.6c0,0-1.5-0.8-1.5-0.8l26.2,0.1c0,0-1.5,2.6-1.5,2.6c-5.8-9.5-17.3-28.4-23-37.9
				c-0.5-0.8-0.1-2,0.8-2.3c9.1-3.2,16.6-10.7,19.8-19.7c1.2-3.3,1.9-6.6,1.9-10.1c0,0,0-2.2,0-2.2c0-1.2,0-3.1,0-4.3
				c-0.1-4.2-1-8.2-2.8-12.1c-4.4-10.3-14.7-17.6-25.9-18.5c-2.4-0.2-6.1-0.1-8.6-0.2c-0.1,0-34.5-0.4-34.6-0.4
				c-0.8-0.1-1.7-0.2-2.5-0.2C417.7,463.2,409,463.1,404.2,463L404.2,463z M404,462.7c3.5-0.1,12.3-0.2,15.7-0.2
				c1.6,0,3.7-0.1,5.3,0.1c6.2,0,37.4-0.5,43.2-0.4c13.8,0.8,25.5,10.4,29.6,23.4c0.9,2.9,1.4,5.8,1.5,8.8c0,1.3,0,3.1,0,4.4
				c0,1.3,0,3.1,0,4.4c-0.3,4.5-1.6,8.9-3.6,12.9c-4,8.1-11.2,14.5-19.7,17.6c0,0,0.8-2.3,0.8-2.3s11.7,18.8,11.7,18.8
				s11.6,18.9,11.6,18.9c0.7,1.1-0.2,2.7-1.5,2.6c0,0-26.2,0.1-26.2,0.1c-0.6,0-1.2-0.3-1.5-0.8c0,0-22.7-36.6-22.7-36.6
				c0,0,1.5,0.8,1.5,0.8l-13.9,0l1.8-1.8l-0.1,36.6c0,0.9-0.7,1.6-1.6,1.6c0,0-22.2-0.1-22.2-0.1c-0.9,0-1.6-0.7-1.6-1.6
				c0-14.6,0.1-44,0.2-58.6c0-0.7,0.6-1.3,1.3-1.3c0,0,34.8,0.2,34.8,0.2s17.4,0.1,17.4,0.1c2,0.1,3.9-0.7,5.3-2
				c2.9-2.6,3.7-5.3,3.5-9.1c0,0,0-4.3,0-4.3c0-2-0.7-4-2-5.5c-1.7-2.1-4.3-3.4-7.1-3.3c0,0-2.2,0-2.2,0
				c-14.3-0.1-33.5-0.1-47.8-0.2c0,0,0.5-0.3,0.5-0.3l-11.3,20.7c-7.1,13-15.5,28.4-22.5,41.5c0,0-11.2,20.8-11.2,20.8
				c-0.3,0.6-1.3,0.7-1.7,0c-10.9-19.1-26.7-46.5-37.6-65.5c-6.9-12.2-15.4-27.2-22.2-39.5c-0.4-0.7-0.2-1.6,0.6-2
				c0.2-0.1,0.5-0.2,0.7-0.2c0,0,26.5,0.1,26.5,0.1c0.5,0,1,0.3,1.2,0.7c8.2,14.9,24.6,44.8,32.8,59.7c0,0-1.7,0-1.7,0
				c2.9-4.9,5.8-9.8,8.5-14.8c1.2-2.2,3-5.2,4.2-7.5c3.2-5.9,7.2-12.8,10.4-18.7C396.5,474.9,400.1,468.7,404,462.7L404,462.7z"/>
		</g>
		<g id="path15">
			<rect x="263.8" y="388.9" class="st0" width="54.1" height="255.3"/>
			<path class="st1" d="M279.6,463.1c0.8,22.4,1.5,44.8,1.2,67.2c-0.2,10.9-0.7,22.1-0.8,33.1c0,1.6,0,5,0,6.7c0,0-0.5-0.5-0.5-0.5
				c3.3,0.1,8-0.1,11.3-0.1c2.8-0.1,8.5-0.2,11.3-0.3c0,0-0.9,0.9-0.9,0.9c-0.9-31.1-1.2-62.5-0.5-93.7c0.1-3.3,0.2-10.1,0.3-13.4
				c0,0,1.1,1.1,1.1,1.1C295.8,463.9,286,463.4,279.6,463.1L279.6,463.1z M279.4,462.9c3.8-0.2,13.3-0.6,17-0.8
				c1.9-0.1,3.9-0.1,5.8-0.2c0.6,0,1.1,0.5,1.1,1.1c0.3,8.7,0.5,18.1,0.6,26.8c0.4,26.6,0,53.6-0.7,80.3c0,0.5-0.4,0.9-0.9,0.9
				c0,0-5.7-0.2-5.7-0.2c-5.3-0.2-11.8-0.2-17-0.2c-0.3,0-0.5-0.2-0.5-0.5c0-1.7,0-5,0-6.7c0-11.2-0.6-22.6-0.8-33.8
				C277.9,507.6,278.5,484.7,279.4,462.9L279.4,462.9z"/>
		</g>
		<text transform="matrix(0.4192 0 0 0.4192 489.119 466.9294)" class="st2 st3 st4">©</text>
	</g>
	<g id="g23" transform="translate(0,-928)">
		<g id="path20">
			<path class="st0" d="M-218.1,1518.4c-2.9,0.4-5.2,2.6-5.5,5.3v0.9v53.9v6.3c1,26.9,15.9,51.4,39.2,64.8c7.4,4,15.4,6.8,23.7,8.3
				h29.8h56h1.2c6-0.8,8.2-6.6,8.9-9.1l0.1-0.7l4.9-63.9l1.6-21.1c-0.3-1,1-3.8,1.9-5.8c6.3,0.2,12.5,1.6,18.3,4.1
				c7.7,3.3,24.5,16.8,28,37.5c0.2,1.9,0.4,3.9,0.4,5.8v0c1.3,14,1.8,27.5,2.8,41.6c0,6.3,4.2,11.4,9.5,11.5h0.1h28.9h29.3h26.4h0.2
				c3.4-0.1,6.2-2.9,6.2-6.3c0-1.9-0.9-3.6-2.3-4.8l-0.4-0.3l-86.4-78.3l-15.6-14.1l-2.2-2l-15.5-14l-2-1.8c-3.9-3.2-8.6-5.2-13.5-6
				l-4.9-0.3l-6.6-0.5l-12.2-0.8l-22-1.5l-10.6-0.7l-92.6-6.3l-21.8-1.5L-218.1,1518.4z"/>
			<path class="st1" d="M-218.1,1518.8c-2.5,0.3-4.9,2.5-5.1,4.9c0,0,0.1,20.7,0.1,20.7c0.1,7,0.3,24.3,0.5,31c0,0,0.1,5.2,0.1,5.2
				c-0.1,25.3,13.7,49.9,34.9,63.4c8.2,5.4,17.8,8.8,27.5,10.5c4.1-0.2,14.7-0.1,21.1-0.2c19.4,0,45.9,0.3,65.3,0.6c0,0-0.4,0-0.4,0
				c1.6-0.2,2.9-0.8,4.1-2.1c1.1-1.2,2-2.9,2.6-4.8c0,0-0.1,0.5-0.1,0.5c2.4-25.3,6-60.7,8-85.6c0,0,0.1,0.5,0.1,0.5
				c-0.4-1.5,0.2-2.6,0.7-3.9c0.4-1,0.9-2,1.4-2.9c0.2-0.4,0.7-0.7,1.2-0.7c6.3,0.2,12.5,1.6,18.2,4.1c8.6,3.9,15.5,10.8,20.9,18.3
				c4,5.8,7,12.4,8.3,19.3c2,15.9,2.8,32.7,4.2,49.1c0.2,2.9,1.4,5.7,3.7,7.3c1.1,0.8,2.3,1.1,3.4,1.1c0,0,5.3-0.1,5.3-0.1
				c10.5-0.2,31.7-0.5,42.2-0.7c9.8-0.2,28.1-0.2,37.7-0.4c1.2-0.2,2.3-1.5,2.1-2.6c-0.1-0.9-0.4-1.3-1.1-1.9
				c-28.7-25.7-57.9-51.7-86.4-77.7c-7.8-7.1-23.4-21.4-31.1-28.5c-1.2-1-4.3-4.1-5.6-4.9c-3.1-2.2-6.7-3.8-10.4-4.4
				C-99.6,1529.6-161.8,1522.5-218.1,1518.8L-218.1,1518.8z M-218.1,1518c53.1,3.6,110.2,5.2,163.4,7.8c0,0,10.9,0.6,10.9,0.6
				c0.1,0,0.2,0,0.3,0c4,0.6,7.8,1.9,11.3,3.9c3.1,1.5,6.3,4.8,8.9,7c14,12.6,33.2,29.7,47.1,42.4c23.5,21.2,46.7,42.8,70,64.1
				c5.8,4.7,4.3,14.5-2.9,17c-2.2,1-6.8,0.5-9.2,0.6c-15.1-0.1-37.6-0.4-52.8-0.6c0,0-21.1-0.4-21.1-0.4s-5.3-0.1-5.3-0.1
				c-2.3-0.1-4.6-0.9-6.4-2.3c-3.5-2.7-5.2-7-5.3-11c-0.6-15.6-1.4-31.2-2.3-46.7c-0.1-1.3-0.5-3-0.7-4.3
				c-2.7-11.6-9.9-21.9-19.3-29.2c-7-5.6-16-8.1-24.9-8.4c0,0,1.2-0.7,1.2-0.7c-0.7,1.4-1.6,3.4-1.8,4.8c0,0,0.1,0.5,0.1,0.5
				c-1.8,24.8-3.8,60.6-5.2,85.8c-1,5.6-5.4,11.3-11.4,11.8c-19.4,0.4-46,0.7-65.4,0.6c-7.5,0-14.9,0-22.4-0.2
				c-7.1-1.3-14-3.6-20.4-6.7c-19.2-9.5-33.8-27.7-39.8-48.1c-4.4-13.5-3.2-27.6-2.9-41.5c0.3-10.3,0.3-31.1,0.4-41.3
				C-223.7,1520.6-221.1,1518.3-218.1,1518L-218.1,1518z"/>
		</g>
		<g id="path4">
			<path class="st5" d="M-144.7,1298.2c-37.5,0.6-69.3,27.7-75.8,64.6c-0.3,1.6-0.5,3.3-0.6,4.9v5.4v11.7v115.3v0.3
				c0.1,3.2,2.7,5.8,5.9,5.8l3.5-1.1l92.8-29.4l17.1-5.4l42-13.3l8.3-2.6c6.7-3.1,9.7-9.5,13.7-15.3l17.9-26.2l5.5-8.1l3.7-5.5
				l63.6-93.3l2-2.9c0.1-0.3,0.1-0.6,0.1-0.9c0-1-0.5-2-1.2-2.8c-0.6-0.6-1.4-1.1-2.3-1.3h-2.2h-76.9h-7.6h-31.6h-76.7
				L-144.7,1298.2z"/>
			<path class="st1" d="M-144.7,1298.6c-38.7,0.5-70.5,31.1-73.6,69.4c0.4,10.3,0.5,23.8,0.7,35.2c0.3,29.4-0.1,59.4-0.9,88.8
				c0,0-0.2,8.7-0.2,8.7c0,0.9,0.4,1.7,1.1,2.4c0.6,0.7,1.5,1.1,2.5,1.1l-0.7,0.1c41.3-11.9,82.3-24.7,122.9-38.5
				c-0.3,0,41.9-14.2,40.4-13.7c6.4-3.2,9.6-10.9,13.6-16.6c28.3-42.9,61.5-92.3,90.4-134.8c0,0-0.6,1.4-0.6,1.4c0,0,0-0.1,0-0.1
				c0,0,0,0.5,0,0.5c0,0,0-0.1-0.1-0.2c0,0,0.1,0.1,0.1,0.1c0,0,0,0,0,0l0,0c0,0-0.1,0-0.1,0C-9.5,1303-80.8,1298.6-144.7,1298.6
				L-144.7,1298.6z M-144.7,1297.8c49,0.1,98.4-2.6,147.3-3.4c16.4-0.3,32.7-0.3,49.1-0.4c1.2,0,2.4,0.5,3.5,1.1
				c3.5,1.9,5.4,6.9,3.3,10.5c-4.3,6.4-8.7,12.8-13.1,19.2c-25.5,37.2-56.8,82.1-82.6,119c-3.4,5.1-7.3,10.6-13.2,13.2
				c-0.1,0.1-0.2,0.1-0.3,0.1c0,0-41.2,12.2-41.2,12.2c-41.4,12.1-82.4,25.6-123.2,39.5c-4.7,0.2-8.8-4.1-8.5-8.8
				c0-0.4-0.1-2.8-0.1-3.3c-0.8-30.9-1.3-62.3-1-93.2c0.1-11.9,0.3-23.9,0.7-35.8C-218.9,1328.3-184,1298.2-144.7,1297.8
				L-144.7,1297.8z"/>
		</g>
		<g id="path5">
			<path class="st6" d="M69.2,1298.2c-2.4,0.9-4.5,2.6-5.9,4.8l-1.4,6.6l-25.5,115.2l-4.9,22.2l-5,22.6l-1.7,7.6
				c-0.6,4-0.5,8.2,0.2,12.3l9.2,18.7l1.7,3.5l12.2,24.8c19.6,35.5,33.4,74.5,53.7,109.5c1.2,1.1,2.7,1.8,4.4,1.8
				c1-0.2,2-0.6,2.8-1.2c0.7-0.6,1.4-1.2,2.1-1.8c16.9-14.6,26.8-35.7,27.2-58v-2.4v-219.2c-4.1-31.4-26.6-57.3-57.2-65.5
				C77.1,1298.9,73.1,1298.4,69.2,1298.2L69.2,1298.2z"/>
			<path class="st1" d="M69,1298.6c-0.1,0.1-0.1,0.2-0.1,0.2c0,0-0.4,0.2-0.4,0.2c-0.8,0.4-1.6,1-2.3,1.6c-0.9,0.8-1.7,1.8-2.3,2.9
				c0,0,0.1-0.2,0.1-0.2c-2.8,15.7-5.7,31.3-8.8,46.9c-7.6,39-15.8,77.9-24.5,116.6c0,0-2.6,11.4-2.6,11.4
				c-0.5,3.4-0.5,7.2,0.1,10.7l-0.3-0.8c9.3,19.7,17.9,39.8,27.7,59.2c9.5,19.6,18.1,39.7,27.4,59.4c5.7,12.5,14.1,27.8,20,38
				c0.8,0.8,1.9,1.2,3,1.2c0,0-0.3,0-0.3,0c0.8-0.2,1.5-0.4,2.1-1.1c2.5-2.1,4.9-4.5,7.2-6.9c8.9-9.9,15.1-22.1,17.9-35.1
				c1.2-5.8,1.8-11.6,1.7-17.5c-0.4-36.3-0.8-73.6-0.8-110c-0.1-23.8,0.2-49.6,0.5-73.3c0.2-11.6,0.2-26.3,0.6-36.2
				c-0.9-8.3-3.3-16.4-6.8-23.9c-7.1-15.3-19.5-28.1-34.5-35.8c-6.6-3.5-13.8-6-21.2-6.9c-0.8-0.1-2.2-0.3-3-0.4c0,0-0.1,0-0.1,0
				s-0.1,0-0.1,0s0,0,0,0C69.1,1298.6,69.3,1298.6,69,1298.6L69,1298.6z M69.3,1297.8c-0.3-0.1-0.1,0-0.1,0
				C69.2,1297.8,69.3,1297.8,69.3,1297.8L69.3,1297.8C69.3,1297.8,69.4,1297.8,69.3,1297.8c3.3,0,6.5,0.3,9.7,0.7
				c1.9,0.2,4.6,1,6.4,1.5c4.2,1.1,8.4,3,12.3,4.7c23.3,11.2,40,34.4,43.6,60c0.8,42.5,1.1,86.2,1,128.8
				c-0.3,30.4-0.4,61.3-0.8,91.7c-0.1,19.1-7.4,37.9-20,52.2c-3.2,3.5-6.5,6.8-10.2,9.8c-1.4,1.2-3.1,2.3-5,2.5
				c-2.2,0.1-4.5-0.9-6-2.4c-3.8-6.4-7-13.2-10.3-19.9c-9.2-18.8-18.4-40.5-27.6-59.3c-3.9-8.1-8.1-16.3-12.5-24.1
				c-1.7-2.9-3.8-6.7-5.3-9.5c-7.6-14.8-15.7-29.5-22.9-44.4c-0.9-4.7-1.2-9.8-0.2-14.6c0.6-2.6,1.6-7.6,2.2-10.3
				c8.5-38.8,17.4-77.5,26.9-116.1c3.8-15.4,7.7-30.8,11.8-46.2c1.2-2.1,3.3-3.7,5.6-4.7C68.4,1298.1,69,1297.8,69.3,1297.8
				L69.3,1297.8z"/>
		</g>
	</g>
</g>
</svg>
